<?xml version="1.0" encoding="utf-8"?><svg xml:space="preserve" viewBox="0 0 100 100" y="0" x="0" xmlns="http://www.w3.org/2000/svg" id="圖層_1" version="1.1" width="200px" height="200px" xmlns:xlink="http://www.w3.org/1999/xlink" style="animation-play-state: paused;
  background-attachment: initial;
  background-clip: initial;
  background-image: initial;
  background-origin: initial;
  background-position-x: initial;
  background-position-y: initial;
  background-repeat-x: initial;
  background-repeat-y: initial;
  background-size: initial;
  height: 100%;
  width: 100%;" ><g class="ldl-scale" style="animation-play-state: paused;
  transform: rotate(0deg) scale(0.8, 0.8);
  transform-origin: 50% 50%;" ><path d="M33.02 13.524h25.52v43.529H33.02z" fill="#abbd81" transform="rotate(53.962 45.782 35.29)" style="animation-play-state: paused;
  fill: rgb(90, 63, 170);" ></path>
<path fill="#66503a" d="M74.862 87.834H16.697A6.697 6.697 0 0 1 10 81.137V32.066a6.697 6.697 0 0 1 6.697-6.697h58.165a6.697 6.697 0 0 1 6.697 6.697v49.071a6.696 6.696 0 0 1-6.697 6.697z" style="animation-play-state: paused;
  fill: rgb(112, 138, 220);" ></path>
<path fill="#4a3827" d="M62.816 66.876h20.487A6.697 6.697 0 0 0 90 60.179v-7.156a6.697 6.697 0 0 0-6.697-6.697H62.816a6.697 6.697 0 0 0-6.697 6.697v7.156a6.697 6.697 0 0 0 6.697 6.697z" style="animation-play-state: paused;
  fill: rgb(176, 214, 249);" ></path>
<circle fill="#e0e0e0" r="5.138" cy="56.601" cx="66.892" style="animation-play-state: paused;
  fill: rgb(66, 4, 87);" ></circle>
<g opacity=".5" style="animation-play-state: paused;" ><g style="animation-play-state: paused;" ><path d="M17.553 31.544h2.202" stroke-miterlimit="10" stroke-width="2.202" stroke="#000" fill="none" style="animation-play-state: paused;
  stroke: rgb(232, 250, 255);" ></path>
<path d="M24.487 31.544h44.952" stroke-dasharray="4.7318,4.7318" stroke-miterlimit="10" stroke-width="2.202" stroke="#000" fill="none" style="animation-play-state: paused;
  stroke: rgb(232, 250, 255);" ></path>
<path d="M71.805 31.544h2.202" stroke-miterlimit="10" stroke-width="2.202" stroke="#000" fill="none" style="animation-play-state: paused;
  stroke: rgb(232, 250, 255);" ></path></g></g>
<g opacity=".5" style="animation-play-state: paused;" ><g style="animation-play-state: paused;" ><path d="M17.553 81.658h2.202" stroke-miterlimit="10" stroke-width="2.202" stroke="#000" fill="none" style="animation-play-state: paused;
  stroke: rgb(232, 250, 255);" ></path>
<path d="M24.487 81.658h44.952" stroke-dasharray="4.7318,4.7318" stroke-miterlimit="10" stroke-width="2.202" stroke="#000" fill="none" style="animation-play-state: paused;
  stroke: rgb(232, 250, 255);" ></path>
<path d="M71.805 81.658h2.202" stroke-miterlimit="10" stroke-width="2.202" stroke="#000" fill="none" style="animation-play-state: paused;
  stroke: rgb(232, 250, 255);" ></path></g></g>
<metadata xmlns:d="https://loading.io/stock/" style="animation-play-state: paused;" ><d:name style="animation-play-state: paused;" >wallet</d:name>
<d:tags style="animation-play-state: paused;" >wallet,purse,money,briefcase</d:tags>
<d:license style="animation-play-state: paused;" >by</d:license>
<d:slug style="animation-play-state: paused;" >45egnk</d:slug></metadata></g><!-- generated by https://loading.io/ --></svg>